<?xml version="1.0" encoding="us-ascii" standalone="no"?><svg xmlns="http://www.w3.org/2000/svg" xmlns:xlink="http://www.w3.org/1999/xlink" contentStyleType="text/css" height="248.9583px" preserveAspectRatio="none" style="width:442px;height:248px;" version="1.1" viewBox="0 0 442 248" width="442.7083px" zoomAndPan="magnify"><defs><linearGradient id="g1e4fob0x7jzuy0" x1="50%" x2="50%" y1="0%" y2="100%"><stop offset="0%" stop-color="#33B2E2"/><stop offset="100%" stop-color="#009FDB"/></linearGradient></defs><g><ellipse cx="64.5833" cy="33.3333" fill="#007FAF" rx="10.4167" ry="10.4167" style="stroke:none;stroke-width:1.0416666666666667;"/><rect fill="url(#g1e4fob0x7jzuy0)" height="41.6667" rx="10.4167" ry="10.4167" style="stroke:#007FAF;stroke-width:1.0416666666666667;" width="95.8333" x="16.6667" y="118.75"/><text fill="#D2D2D2" font-family="Verdana" font-size="11.4583" lengthAdjust="spacing" textLength="68.75" x="30.2083" y="144.1404">AssertState</text><ellipse cx="64.5833" cy="227.0833" fill="none" rx="10.4167" ry="10.4167" style="stroke:#0568AE;stroke-width:1.0416666666666667;"/><ellipse cx="65.1042" cy="227.6042" fill="#0568AE" rx="6.25" ry="6.25" style="stroke:none;stroke-width:1.0416666666666667;"/><path d="M64.5833,48.1686 C64.5833,65.3463 64.5833,97.6042 64.5833,118.5711 " fill="none" style="stroke:#009FDB;stroke-width:3.125;"/><polygon fill="#009FDB" points="64.5833,118.5711,68.75,109.1961,64.5833,113.3628,60.4167,109.1961,64.5833,118.5711" style="stroke:#009FDB;stroke-width:1.0416666666666667;"/><text fill="#5A5A5A" font-family="Verdana" font-size="12.5" lengthAdjust="spacing" textLength="65.625" x="73.9583" y="88.6088">assertThat</text><path d="M64.5833,160.4801 C64.5833,177.8253 64.5833,202.3989 64.5833,216.6578 " fill="none" style="stroke:#009FDB;stroke-width:3.125;"/><polygon fill="#009FDB" points="64.5833,216.6578,68.75,207.2828,64.5833,211.4495,60.4167,207.2828,64.5833,216.6578" style="stroke:#009FDB;stroke-width:1.0416666666666667;"/><path d="M112.5252,130.8183 C123.3398,131.6079 131.25,134.5296 131.25,139.5833 C131.25,144.637 123.3398,147.5587 112.5252,148.3484 " fill="none" style="stroke:#009FDB;stroke-width:3.125;"/><polygon fill="#009FDB" points="112.5252,148.3484,122.1787,151.8213,117.7197,147.9691,121.5719,143.5101,112.5252,148.3484" style="stroke:#009FDB;stroke-width:1.0416666666666667;"/><text fill="#5A5A5A" font-family="Verdana" font-size="12.5" lengthAdjust="spacing" textLength="280.2083" x="140.625" y="144.8588">contains / hasSizeGreaterThan / isLowerCase</text><!--SRC=[POmz2y9044Jx-nMRLWZs5e9OsDZ5JYpMPCWTv3xOtI3dh_T8fLZEcpVJcKS4FPSLit1rNH6U8zF2DQz66c6SsFamWH2BLPgWeuHY8ITttpsexuzqKeNOO6mu46_XvjdS5z-yvhi_-3CUSp8EIMbFddK8Rrm4hP7sbneCUiqlo9aL7m00]--></g></svg>