<?xml version="1.0" encoding="us-ascii" standalone="no"?><svg xmlns="http://www.w3.org/2000/svg" xmlns:xlink="http://www.w3.org/1999/xlink" contentStyleType="text/css" height="601.0417px" preserveAspectRatio="none" style="width:356px;height:601px;" version="1.1" viewBox="0 0 356 601" width="356.25px" zoomAndPan="magnify"><defs><linearGradient id="gzhrtw3ua0k3t0" x1="50%" x2="50%" y1="0%" y2="100%"><stop offset="0%" stop-color="#33B2E2"/><stop offset="100%" stop-color="#009FDB"/></linearGradient></defs><g><ellipse cx="211.9792" cy="33.3333" fill="#007FAF" rx="10.4167" ry="10.4167" style="stroke:none;stroke-width:1.0416666666666667;"/><rect fill="url(#gzhrtw3ua0k3t0)" height="41.6667" rx="10.4167" ry="10.4167" style="stroke:#007FAF;stroke-width:1.0416666666666667;" width="94.7917" x="164.5833" y="118.75"/><text fill="#D2D2D2" font-family="Verdana" font-size="11.4583" lengthAdjust="spacing" textLength="67.7083" x="178.125" y="144.1404">SelectState</text><rect fill="url(#gzhrtw3ua0k3t0)" height="41.6667" rx="10.4167" ry="10.4167" style="stroke:#007FAF;stroke-width:1.0416666666666667;" width="88.5417" x="167.7083" y="231.25"/><text fill="#D2D2D2" font-family="Verdana" font-size="11.4583" lengthAdjust="spacing" textLength="61.4583" x="181.25" y="256.6404">FromState</text><rect fill="url(#gzhrtw3ua0k3t0)" height="41.6667" rx="10.4167" ry="10.4167" style="stroke:#007FAF;stroke-width:1.0416666666666667;" width="96.875" x="16.6667" y="343.75"/><text fill="#D2D2D2" font-family="Verdana" font-size="11.4583" lengthAdjust="spacing" textLength="69.7917" x="30.2083" y="369.1404">WhereState</text><rect fill="url(#gzhrtw3ua0k3t0)" height="41.6667" rx="10.4167" ry="10.4167" style="stroke:#007FAF;stroke-width:1.0416666666666667;" width="108.3333" x="145.3125" y="456.25"/><text fill="#D2D2D2" font-family="Verdana" font-size="11.4583" lengthAdjust="spacing" textLength="81.25" x="158.8542" y="481.6404">OrderByState</text><ellipse cx="199.4792" cy="579.1667" fill="none" rx="10.4167" ry="10.4167" style="stroke:#0568AE;stroke-width:1.0416666666666667;"/><ellipse cx="200" cy="579.6875" fill="#0568AE" rx="6.25" ry="6.25" style="stroke:none;stroke-width:1.0416666666666667;"/><path d="M211.9792,48.1686 C211.9792,65.3463 211.9792,97.6042 211.9792,118.5711 " fill="none" style="stroke:#009FDB;stroke-width:3.125;"/><polygon fill="#009FDB" points="211.9792,118.5711,216.1458,109.1961,211.9792,113.3628,207.8125,109.1961,211.9792,118.5711" style="stroke:#009FDB;stroke-width:1.0416666666666667;"/><text fill="#5A5A5A" font-family="Verdana" font-size="12.5" lengthAdjust="spacing" textLength="35.4167" x="221.3542" y="88.6088">select</text><path d="M211.9792,160.8771 C211.9792,180.7998 211.9792,211.0397 211.9792,230.9179 " fill="none" style="stroke:#009FDB;stroke-width:3.125;"/><polygon fill="#009FDB" points="211.9792,230.9179,216.1458,221.5429,211.9792,225.7096,207.8125,221.5429,211.9792,230.9179" style="stroke:#009FDB;stroke-width:1.0416666666666667;"/><text fill="#5A5A5A" font-family="Verdana" font-size="12.5" lengthAdjust="spacing" textLength="29.1667" x="221.3542" y="201.1088">from</text><path d="M170.1465,273.0842 C159.9867,278.5935 149.3837,284.9268 140.1042,291.6667 C118.7999,307.1402 97.4016,328.3421 82.9458,343.7055 " fill="none" style="stroke:#009FDB;stroke-width:3.125;"/><polygon fill="#009FDB" points="82.9458,343.7055,92.4048,339.733,86.5149,339.9123,86.3357,334.0225,82.9458,343.7055" style="stroke:#009FDB;stroke-width:1.0416666666666667;"/><text fill="#5A5A5A" font-family="Verdana" font-size="12.5" lengthAdjust="spacing" textLength="38.5417" x="149.4792" y="313.6088">where</text><path d="M210.8478,273.3005 C208.468,315.7413 202.9687,413.8124 200.5989,456.0723 " fill="none" style="stroke:#009FDB;stroke-width:3.125;"/><polygon fill="#009FDB" points="200.5989,456.0723,205.2839,446.9453,200.8905,450.8722,196.9637,446.4788,200.5989,456.0723" style="stroke:#009FDB;stroke-width:1.0416666666666667;"/><text fill="#5A5A5A" font-family="Verdana" font-size="12.5" lengthAdjust="spacing" textLength="47.9167" x="216.1458" y="369.8588">orderBy</text><path d="M80.3379,385.537 C92.7784,400.9422 111.406,422.1633 130.7292,437.5 C139.3034,444.3054 149.2326,450.6212 158.8326,456.0889 " fill="none" style="stroke:#009FDB;stroke-width:3.125;"/><polygon fill="#009FDB" points="158.8326,456.0889,152.7484,447.8285,154.3069,453.5112,148.6241,455.0697,158.8326,456.0889" style="stroke:#009FDB;stroke-width:1.0416666666666667;"/><text fill="#5A5A5A" font-family="Verdana" font-size="12.5" lengthAdjust="spacing" textLength="47.9167" x="140.1042" y="426.1088">orderBy</text><path d="M113.7226,354.3203 C124.4667,355.2847 132.2917,358.7056 132.2917,364.5833 C132.2917,370.461 124.4667,373.882 113.7226,374.8463 " fill="none" style="stroke:#009FDB;stroke-width:3.125;"/><polygon fill="#009FDB" points="113.7226,374.8463,123.4325,378.1582,118.91,374.3807,122.6875,369.8583,113.7226,374.8463" style="stroke:#009FDB;stroke-width:1.0416666666666667;"/><text fill="#5A5A5A" font-family="Verdana" font-size="12.5" lengthAdjust="spacing" textLength="22.9167" x="141.6667" y="369.8588">and</text><path d="M232.1129,272.9558 C247.9144,290.0328 268.6817,316.2156 277.6042,343.75 C306.0864,431.6448 306.062,475.3907 251.5625,550 C241.2039,564.1808 222.0106,572.7589 210.0391,576.9808 " fill="none" style="stroke:#009FDB;stroke-width:3.125;"/><polygon fill="#009FDB" points="210.0391,576.9808,220.2662,577.7923,214.951,575.2486,217.4947,569.9333,210.0391,576.9808" style="stroke:#009FDB;stroke-width:1.0416666666666667;"/><text fill="#5A5A5A" font-family="Verdana" font-size="12.5" lengthAdjust="spacing" textLength="29.1667" x="305.7292" y="426.1088">build</text><path d="M64.1116,385.615 C63.6874,413.0095 66.3446,462.8121 88.0208,497.9167 C113.0424,538.4391 166.0337,565.5057 188.7611,575.6902 " fill="none" style="stroke:#009FDB;stroke-width:3.125;"/><polygon fill="#009FDB" points="188.7611,575.6902,181.9097,568.0541,184.0081,573.5604,178.5019,575.6588,188.7611,575.6902" style="stroke:#009FDB;stroke-width:1.0416666666666667;"/><text fill="#5A5A5A" font-family="Verdana" font-size="12.5" lengthAdjust="spacing" textLength="29.1667" x="97.3958" y="482.3588">build</text><path d="M199.4792,498.2934 C199.4792,519.3277 199.4792,551.5669 199.4792,568.6517 " fill="none" style="stroke:#009FDB;stroke-width:3.125;"/><polygon fill="#009FDB" points="199.4792,568.6517,203.6458,559.2767,199.4792,563.4433,195.3125,559.2767,199.4792,568.6517" style="stroke:#009FDB;stroke-width:1.0416666666666667;"/><text fill="#5A5A5A" font-family="Verdana" font-size="12.5" lengthAdjust="spacing" textLength="29.1667" x="208.8542" y="538.6088">build</text><!--SRC=[ZO-n3i8m34HtVuMx8lK7EZ0mi39qO40CRcFQI4bJkOvG_fvIAeWoiTtvtUdaIaVsZ9sBF0Wbg6QXmHCwIY4gBfwL9eBH6aRsioOqlFHYPxLXWjlXZdLzn9OTzzegAJUuR0OWEswXimI_HnwhXA_Vw7LauHq_txhW5p4ifxGdmiV1h_L_A5-YoK0njFxKO1UjCsKn8_bGmLu0]--></g></svg>